<mxfile host="app.diagrams.net" modified="2023-11-12T09:56:31.889Z" agent="Mozilla/5.0 (Macintosh; Intel Mac OS X 10_15_7) AppleWebKit/537.36 (KHTML, like Gecko) Chrome/118.0.0.0 Safari/537.36" etag="esMH951qdz2Km6a2GkXp" version="22.1.0" type="github">
  <diagram name="第 1 页" id="JtU94qVMo0t201DK89so">
    <mxGraphModel dx="784" dy="1156" grid="1" gridSize="10" guides="1" tooltips="1" connect="1" arrows="1" fold="1" page="1" pageScale="1" pageWidth="827" pageHeight="1169" math="0" shadow="0">
      <root>
        <mxCell id="0" />
        <mxCell id="1" parent="0" />
        <mxCell id="JmnIDDcU_PU6tMFDnc2y-1" value="移动端 H5 架构处理请求流程-1" style="swimlane;childLayout=stackLayout;resizeParent=1;resizeParentMax=0;startSize=20;html=1;" vertex="1" parent="1">
          <mxGeometry x="150" y="50" width="430" height="1240" as="geometry" />
        </mxCell>
        <mxCell id="JmnIDDcU_PU6tMFDnc2y-2" value="Client" style="swimlane;startSize=20;html=1;" vertex="1" parent="JmnIDDcU_PU6tMFDnc2y-1">
          <mxGeometry y="20" width="230" height="1220" as="geometry" />
        </mxCell>
        <mxCell id="JmnIDDcU_PU6tMFDnc2y-3" value="" style="edgeStyle=orthogonalEdgeStyle;rounded=0;orthogonalLoop=1;jettySize=auto;html=1;" edge="1" parent="JmnIDDcU_PU6tMFDnc2y-2" source="JmnIDDcU_PU6tMFDnc2y-4" target="JmnIDDcU_PU6tMFDnc2y-5">
          <mxGeometry relative="1" as="geometry" />
        </mxCell>
        <mxCell id="JmnIDDcU_PU6tMFDnc2y-4" value="1.用户在移动设备上访问 H5 页面，通过浏览器加载页面" style="rounded=0;whiteSpace=wrap;html=1;" vertex="1" parent="JmnIDDcU_PU6tMFDnc2y-2">
          <mxGeometry x="32.5" y="40" width="105" height="60" as="geometry" />
        </mxCell>
        <mxCell id="JmnIDDcU_PU6tMFDnc2y-5" value="2.浏览器发起网络请求" style="rounded=0;whiteSpace=wrap;html=1;" vertex="1" parent="JmnIDDcU_PU6tMFDnc2y-2">
          <mxGeometry x="33" y="180" width="105" height="60" as="geometry" />
        </mxCell>
        <mxCell id="JmnIDDcU_PU6tMFDnc2y-6" value="" style="edgeStyle=orthogonalEdgeStyle;rounded=0;orthogonalLoop=1;jettySize=auto;html=1;" edge="1" parent="JmnIDDcU_PU6tMFDnc2y-2" source="JmnIDDcU_PU6tMFDnc2y-7" target="JmnIDDcU_PU6tMFDnc2y-9">
          <mxGeometry relative="1" as="geometry" />
        </mxCell>
        <mxCell id="JmnIDDcU_PU6tMFDnc2y-7" value="7.客户端处理响应" style="rounded=0;whiteSpace=wrap;html=1;" vertex="1" parent="JmnIDDcU_PU6tMFDnc2y-2">
          <mxGeometry x="33" y="700" width="105" height="60" as="geometry" />
        </mxCell>
        <mxCell id="JmnIDDcU_PU6tMFDnc2y-8" value="" style="edgeStyle=orthogonalEdgeStyle;rounded=0;orthogonalLoop=1;jettySize=auto;html=1;" edge="1" parent="JmnIDDcU_PU6tMFDnc2y-2" source="JmnIDDcU_PU6tMFDnc2y-9" target="JmnIDDcU_PU6tMFDnc2y-11">
          <mxGeometry relative="1" as="geometry" />
        </mxCell>
        <mxCell id="JmnIDDcU_PU6tMFDnc2y-9" value="8.渲染界面" style="rounded=0;whiteSpace=wrap;html=1;" vertex="1" parent="JmnIDDcU_PU6tMFDnc2y-2">
          <mxGeometry x="32.5" y="840" width="105" height="60" as="geometry" />
        </mxCell>
        <mxCell id="JmnIDDcU_PU6tMFDnc2y-10" value="通过 HTTP 协议请求通信" style="text;html=1;align=center;verticalAlign=middle;resizable=0;points=[];autosize=1;strokeColor=none;fillColor=none;" vertex="1" parent="JmnIDDcU_PU6tMFDnc2y-2">
          <mxGeometry x="150" y="640" width="160" height="30" as="geometry" />
        </mxCell>
        <mxCell id="JmnIDDcU_PU6tMFDnc2y-11" value="9.加载 JS 资源" style="rounded=0;whiteSpace=wrap;html=1;" vertex="1" parent="JmnIDDcU_PU6tMFDnc2y-2">
          <mxGeometry x="32.5" y="980" width="105" height="60" as="geometry" />
        </mxCell>
        <mxCell id="JmnIDDcU_PU6tMFDnc2y-12" value="Server" style="swimlane;startSize=20;html=1;" vertex="1" parent="JmnIDDcU_PU6tMFDnc2y-1">
          <mxGeometry x="230" y="20" width="200" height="1220" as="geometry" />
        </mxCell>
        <mxCell id="JmnIDDcU_PU6tMFDnc2y-13" value="" style="edgeStyle=orthogonalEdgeStyle;rounded=0;orthogonalLoop=1;jettySize=auto;html=1;" edge="1" parent="JmnIDDcU_PU6tMFDnc2y-12" source="JmnIDDcU_PU6tMFDnc2y-14" target="JmnIDDcU_PU6tMFDnc2y-17">
          <mxGeometry relative="1" as="geometry" />
        </mxCell>
        <mxCell id="JmnIDDcU_PU6tMFDnc2y-14" value="3.服务器接收请求" style="rounded=0;whiteSpace=wrap;html=1;" vertex="1" parent="JmnIDDcU_PU6tMFDnc2y-12">
          <mxGeometry x="70" y="180" width="105" height="60" as="geometry" />
        </mxCell>
        <mxCell id="JmnIDDcU_PU6tMFDnc2y-15" value="通过 HTTP 协议请求通信" style="text;html=1;align=center;verticalAlign=middle;resizable=0;points=[];autosize=1;strokeColor=none;fillColor=none;" vertex="1" parent="JmnIDDcU_PU6tMFDnc2y-12">
          <mxGeometry x="-85" y="210" width="160" height="30" as="geometry" />
        </mxCell>
        <mxCell id="JmnIDDcU_PU6tMFDnc2y-16" value="" style="edgeStyle=orthogonalEdgeStyle;rounded=0;orthogonalLoop=1;jettySize=auto;html=1;" edge="1" parent="JmnIDDcU_PU6tMFDnc2y-12" source="JmnIDDcU_PU6tMFDnc2y-17" target="JmnIDDcU_PU6tMFDnc2y-19">
          <mxGeometry relative="1" as="geometry" />
        </mxCell>
        <mxCell id="JmnIDDcU_PU6tMFDnc2y-17" value="4.中间件处理请求" style="rounded=0;whiteSpace=wrap;html=1;" vertex="1" parent="JmnIDDcU_PU6tMFDnc2y-12">
          <mxGeometry x="70" y="320" width="105" height="60" as="geometry" />
        </mxCell>
        <mxCell id="JmnIDDcU_PU6tMFDnc2y-18" value="" style="edgeStyle=orthogonalEdgeStyle;rounded=0;orthogonalLoop=1;jettySize=auto;html=1;" edge="1" parent="JmnIDDcU_PU6tMFDnc2y-12" source="JmnIDDcU_PU6tMFDnc2y-19" target="JmnIDDcU_PU6tMFDnc2y-20">
          <mxGeometry relative="1" as="geometry" />
        </mxCell>
        <mxCell id="JmnIDDcU_PU6tMFDnc2y-19" value="5.业务逻辑处理" style="rounded=0;whiteSpace=wrap;html=1;" vertex="1" parent="JmnIDDcU_PU6tMFDnc2y-12">
          <mxGeometry x="70" y="460" width="105" height="60" as="geometry" />
        </mxCell>
        <mxCell id="JmnIDDcU_PU6tMFDnc2y-20" value="6.生成响应" style="rounded=0;whiteSpace=wrap;html=1;" vertex="1" parent="JmnIDDcU_PU6tMFDnc2y-12">
          <mxGeometry x="70" y="600" width="105" height="60" as="geometry" />
        </mxCell>
        <mxCell id="JmnIDDcU_PU6tMFDnc2y-21" value="" style="edgeStyle=orthogonalEdgeStyle;rounded=0;orthogonalLoop=1;jettySize=auto;html=1;" edge="1" parent="JmnIDDcU_PU6tMFDnc2y-1" source="JmnIDDcU_PU6tMFDnc2y-5" target="JmnIDDcU_PU6tMFDnc2y-14">
          <mxGeometry relative="1" as="geometry" />
        </mxCell>
        <mxCell id="JmnIDDcU_PU6tMFDnc2y-22" value="" style="edgeStyle=orthogonalEdgeStyle;rounded=0;orthogonalLoop=1;jettySize=auto;html=1;" edge="1" parent="JmnIDDcU_PU6tMFDnc2y-1" source="JmnIDDcU_PU6tMFDnc2y-20" target="JmnIDDcU_PU6tMFDnc2y-7">
          <mxGeometry relative="1" as="geometry">
            <mxPoint x="220" y="650" as="targetPoint" />
          </mxGeometry>
        </mxCell>
      </root>
    </mxGraphModel>
  </diagram>
</mxfile>
